<mxfile host="app.diagrams.net" modified="2023-12-12T13:25:58.409Z" agent="Mozilla/5.0 (Windows NT 10.0; Win64; x64; rv:109.0) Gecko/20100101 Firefox/119.0" etag="3iAwZXtFHPMoH58XTlIu" version="22.1.7" type="github">
  <diagram name="Page-1" id="TVL9w843lbLRJoNqAeuC">
    <mxGraphModel dx="933" dy="794" grid="1" gridSize="10" guides="1" tooltips="1" connect="1" arrows="1" fold="1" page="1" pageScale="1" pageWidth="827" pageHeight="1169" math="0" shadow="0">
      <root>
        <mxCell id="0" />
        <mxCell id="1" parent="0" />
        <mxCell id="YQ2x74BQYFpG45aSmwed-3" value="" style="group" vertex="1" connectable="0" parent="1">
          <mxGeometry x="40" y="40" width="80" height="80" as="geometry" />
        </mxCell>
        <mxCell id="YQ2x74BQYFpG45aSmwed-2" value="" style="ellipse;whiteSpace=wrap;html=1;aspect=fixed;movable=1;resizable=1;rotatable=1;deletable=1;editable=1;locked=0;connectable=1;" vertex="1" parent="YQ2x74BQYFpG45aSmwed-3">
          <mxGeometry width="80" height="80" as="geometry" />
        </mxCell>
        <mxCell id="YQ2x74BQYFpG45aSmwed-1" value="Student" style="ellipse;whiteSpace=wrap;html=1;movable=1;resizable=1;rotatable=1;deletable=1;editable=1;locked=0;connectable=1;" vertex="1" parent="YQ2x74BQYFpG45aSmwed-3">
          <mxGeometry x="5" y="5" width="70" height="70" as="geometry" />
        </mxCell>
        <mxCell id="YQ2x74BQYFpG45aSmwed-4" value="Team" style="text;html=1;strokeColor=none;fillColor=none;align=center;verticalAlign=middle;whiteSpace=wrap;rounded=0;" vertex="1" parent="1">
          <mxGeometry x="50" y="10" width="60" height="30" as="geometry" />
        </mxCell>
      </root>
    </mxGraphModel>
  </diagram>
</mxfile>
